<svg xmlns="http://www.w3.org/2000/svg" viewBox="50 50 300 300">
  <ellipse cx="200" cy="200" rx="62" ry="145" fill="none" stroke="#0084ff" stroke-width="5" stroke-dasharray="1"
    stroke-linecap="round" />
  <ellipse cx="200" cy="200" rx="62" ry="145" fill="none" stroke="#0084ff" stroke-width="5" stroke-dasharray="1"
    stroke-linecap="round" transform="rotate(60 200 200)" />
  <ellipse cx="200" cy="200" rx="62" ry="145" fill="none" stroke="#0084ff" stroke-width="5" stroke-dasharray="1"
    stroke-linecap="round" transform="rotate(120 200 200)" />
  <polygon points="200,200 265,162.25 265,237.75 200,275.75" fill="rgb(80, 58, 41)" clip-path="url(#rounded-corners)"
    filter="url(#blue-tint)" />
  <polygon points="200,200 135,162.25 135,247.75 200,275.75" fill="rgb(107, 77, 54)" clip-path="url(#rounded-corners)"
    filter="url(#blue-tint)" />
  <polygon points="200,200 135,162.25 200,124.75 265,162.25" fill="rgb(116, 174, 73)" clip-path="url(#rounded-corners)"
    filter="url(#blue-tint)" />
  <defs>
    <clipPath id="rounded-corners">
      <path
        d="m 190 131.75 a 20 20 0 0 1 20 0 l 44.9519 25.953 a 20 20 0 0 1 10 17.3205 l 0 51.906 a 20 20 0 0 1 -10 17.3205 l -44.9519 25.953 a 20 20 0 0 1 -20 0 l -44.9519 -25.953 a 20 20 0 0 1 -10 -17.3205 l 0 -51.906 a 20 20 0 0 1 10 -17.3205">
        >
      </path>
    </clipPath>

    <filter id="blue-tint">
      <feColorMatrix type="matrix" values="1 0 0 0 0
                    0 1 0 0 0
                    0 0 1 0 0.05
                    0 0 0 1 0" />
    </filter>
  </defs>
</svg>